<svg xmlns="http://www.w3.org/2000/svg" viewBox="0 5.880000114440918 220.5800018310547 32.18000030517578" data-asc="0.75" width="220.5800018310547" height="32.18000030517578"><defs/><g fill="#0033ff"><g transform="translate(0, 0)"><path d="M7.35 37.50L7.35 36.74Q10.38 36.65 11.71 36.24Q13.04 35.84 13.38 35.02Q13.72 34.20 13.72 32.89L13.72 9.81L9.79 9.81Q7.93 9.81 6.42 10.40Q4.91 10.99 3.55 12.81Q2.20 14.62 0.76 18.36L0 18.36Q0.54 15.01 0.71 12.92Q0.88 10.82 0.68 8.96Q3.74 9.01 7.60 9.05Q11.47 9.08 15.58 9.08Q17.70 9.08 20.29 9.08Q22.88 9.08 25.51 9.05Q28.15 9.01 30.44 8.96Q30.30 10.55 30.47 12.85Q30.64 15.16 31.20 18.36L30.42 18.36Q28.86 14.50 27.44 12.68Q26.03 10.86 24.56 10.34Q23.10 9.81 21.34 9.81L17.43 9.81L17.43 32.89Q17.43 34.20 17.77 35.02Q18.12 35.84 19.47 36.24Q20.83 36.65 23.80 36.74L23.80 37.50Q22.31 37.45 20.19 37.41Q18.07 37.38 15.72 37.38Q12.99 37.38 10.84 37.41Q8.69 37.45 7.35 37.50ZM40.55 38.06Q38.11 38.06 36.66 36.65Q35.21 35.23 35.21 32.50Q35.21 30.54 35.95 29.39Q36.69 28.25 37.89 27.62Q39.09 27.00 40.45 26.65Q41.82 26.29 43.09 25.96Q44.36 25.63 45.23 25.06Q46.09 24.49 46.29 23.41Q46.12 20.46 45.25 18.82Q44.38 17.19 42.77 17.19Q41.21 17.19 40.05 17.66Q38.89 18.14 38.89 18.95Q38.89 19.70 39.43 20.61Q39.97 21.51 39.97 22.31Q39.97 23.07 39.47 23.51Q38.96 23.95 38.13 23.95Q37.18 23.95 36.60 23.29Q36.01 22.63 36.01 21.51Q36.01 20.07 37.04 18.85Q38.06 17.63 39.82 16.89Q41.58 16.16 43.73 16.16Q47.14 16.16 48.55 18.53Q49.95 20.90 49.95 25.24L49.95 34.99Q49.95 36.89 51.12 36.89Q51.78 36.89 52.39 36.71Q53.00 36.52 53.42 35.62L53.83 36.28Q52.93 37.38 52.06 37.72Q51.20 38.06 49.83 38.06Q46.36 38.06 46.36 34.38Q45.31 36.08 43.87 37.07Q42.43 38.06 40.55 38.06M42.21 36.33Q43.38 36.33 44.47 35.72Q45.56 35.11 46.34 33.52L46.34 24.98Q46.34 24.58 46.34 24.19Q46.07 25.46 45.25 25.98Q44.43 26.49 43.38 26.76Q42.33 27.03 41.32 27.47Q40.31 27.91 39.65 28.98Q38.99 30.05 38.99 32.25Q38.99 34.25 39.86 35.29Q40.72 36.33 42.21 36.33ZM55.18 37.50L55.18 36.74Q56.98 36.69 57.70 36.11Q58.42 35.52 58.42 33.84L58.42 21.02Q58.42 19.51 57.69 18.62Q56.96 17.72 55.18 17.48L55.18 16.72Q55.96 16.80 56.63 16.82Q57.30 16.85 57.91 16.85Q60.40 16.85 62.06 16.28L62.06 33.84Q62.06 35.52 62.79 36.11Q63.53 36.69 65.36 36.74L65.36 37.50Q64.62 37.45 63.17 37.39Q61.72 37.33 60.28 37.33Q58.84 37.33 57.37 37.39Q55.91 37.45 55.18 37.50M60.45 11.79Q59.47 11.79 58.79 11.02Q58.11 10.25 58.11 9.23Q58.11 8.18 58.79 7.45Q59.47 6.71 60.45 6.71Q61.38 6.71 62.06 7.45Q62.74 8.18 62.74 9.23Q62.74 10.25 62.06 11.02Q61.38 11.79 60.45 11.79ZM67.02 37.50L67.02 36.74Q68.92 36.69 69.68 36.11Q70.43 35.52 70.43 33.84L70.43 10.62Q70.43 9.11 69.67 8.19Q68.90 7.28 67.02 7.08L67.02 6.32Q67.80 6.40 68.48 6.42Q69.17 6.45 69.85 6.45Q71.04 6.45 72.11 6.31Q73.17 6.18 74.07 5.88L74.07 33.84Q74.07 35.52 74.83 36.11Q75.59 36.69 77.49 36.74L77.49 37.50Q76.73 37.45 75.24 37.39Q73.75 37.33 72.27 37.33Q70.78 37.33 69.29 37.39Q67.80 37.45 67.02 37.50ZM87.43 38.06Q85.89 38.06 84.92 37.71Q83.96 37.35 83.37 37.01Q82.79 36.67 82.32 36.67Q81.91 36.67 81.51 36.96Q81.10 37.26 80.93 37.96L80.20 37.96Q80.32 37.89 80.38 37.29Q80.44 36.69 80.43 34.91Q80.42 33.13 80.32 29.49L81.03 29.49Q81.52 33.08 82.86 35.19Q84.20 37.30 86.77 37.30Q88.84 37.30 90.00 36.17Q91.16 35.03 91.16 32.81Q91.16 30.79 90.30 29.72Q89.43 28.66 87.11 27.98Q84.01 27.05 82.45 25.96Q80.88 24.88 80.88 22.36Q80.88 19.48 82.52 17.82Q84.16 16.16 86.74 16.16Q88.13 16.16 88.92 16.52Q89.70 16.87 90.20 17.22Q90.70 17.58 91.24 17.58Q92.02 17.58 92.46 16.28L93.14 16.28Q92.97 17.53 92.96 19.12Q92.94 20.70 93.04 23.39L92.33 23.39Q92.11 20.39 90.71 18.68Q89.31 16.97 87.21 16.97Q85.55 16.97 84.56 17.91Q83.57 18.85 83.57 20.78Q83.57 22.63 84.73 23.50Q85.89 24.37 88.48 25.15Q91.28 25.98 92.57 27.32Q93.85 28.66 93.85 31.23Q93.85 34.47 92.13 36.27Q90.41 38.06 87.43 38.06ZM104.91 37.50L104.91 36.74Q107.93 36.65 109.27 36.24Q110.60 35.84 110.94 35.02Q111.28 34.20 111.28 32.89L111.28 9.81L107.35 9.81Q105.49 9.81 103.98 10.40Q102.47 10.99 101.11 12.81Q99.76 14.62 98.32 18.36L97.56 18.36Q98.10 15.01 98.27 12.92Q98.44 10.82 98.24 8.96Q101.29 9.01 105.16 9.05Q109.03 9.08 113.13 9.08Q115.26 9.08 117.85 9.08Q120.43 9.08 123.07 9.05Q125.71 9.01 128.00 8.96Q127.86 10.55 128.03 12.85Q128.20 15.16 128.76 18.36L127.98 18.36Q126.42 14.50 125 12.68Q123.58 10.86 122.12 10.34Q120.65 9.81 118.90 9.81L114.99 9.81L114.99 32.89Q114.99 34.20 115.33 35.02Q115.67 35.84 117.03 36.24Q118.38 36.65 121.36 36.74L121.36 37.50Q119.87 37.45 117.75 37.41Q115.63 37.38 113.28 37.38Q110.55 37.38 108.40 37.41Q106.25 37.45 104.91 37.50ZM138.11 38.06Q135.67 38.06 134.22 36.65Q132.76 35.23 132.76 32.50Q132.76 30.54 133.51 29.39Q134.25 28.25 135.45 27.62Q136.65 27.00 138.01 26.65Q139.38 26.29 140.65 25.96Q141.92 25.63 142.79 25.06Q143.65 24.49 143.85 23.41Q143.68 20.46 142.81 18.82Q141.94 17.19 140.33 17.19Q138.77 17.19 137.61 17.66Q136.45 18.14 136.45 18.95Q136.45 19.70 136.99 20.61Q137.52 21.51 137.52 22.31Q137.52 23.07 137.02 23.51Q136.52 23.95 135.69 23.95Q134.74 23.95 134.16 23.29Q133.57 22.63 133.57 21.51Q133.57 20.07 134.59 18.85Q135.62 17.63 137.38 16.89Q139.14 16.16 141.28 16.16Q144.70 16.16 146.11 18.53Q147.51 20.90 147.51 25.24L147.51 34.99Q147.51 36.89 148.68 36.89Q149.34 36.89 149.95 36.71Q150.56 36.52 150.98 35.62L151.39 36.28Q150.49 37.38 149.62 37.72Q148.75 38.06 147.39 38.06Q143.92 38.06 143.92 34.38Q142.87 36.08 141.43 37.07Q139.99 38.06 138.11 38.06M139.77 36.33Q140.94 36.33 142.03 35.72Q143.12 35.11 143.90 33.52L143.90 24.98Q143.90 24.58 143.90 24.19Q143.63 25.46 142.81 25.98Q141.99 26.49 140.94 26.76Q139.89 27.03 138.88 27.47Q137.87 27.91 137.21 28.98Q136.55 30.05 136.55 32.25Q136.55 34.25 137.41 35.29Q138.28 36.33 139.77 36.33ZM152.47 37.50L152.47 36.74Q154.37 36.69 155.13 36.11Q155.88 35.52 155.88 33.84L155.88 10.62Q155.88 9.11 155.11 8.19Q154.35 7.28 152.47 7.08L152.47 6.32Q153.25 6.40 153.93 6.42Q154.61 6.45 155.30 6.45Q156.49 6.45 157.56 6.31Q158.62 6.18 159.52 5.88L159.52 33.84Q159.52 35.52 160.28 36.11Q161.04 36.69 162.94 36.74L162.94 37.50Q162.18 37.45 160.69 37.39Q159.20 37.33 157.71 37.33Q156.23 37.33 154.74 37.39Q153.25 37.45 152.47 37.50ZM164.65 37.50L164.65 36.74Q166.82 36.62 167.60 36.01Q168.38 35.40 168.38 33.84L168.38 10.62Q168.38 8.76 167.55 8.02Q166.72 7.28 164.65 7.08L164.65 6.32Q165.41 6.40 166.15 6.42Q166.89 6.45 167.58 6.45Q170.00 6.45 172.02 5.88L172.02 25.93L174.12 25.93Q175.46 25.93 176.53 25.42Q177.59 24.90 178.34 23.58L179.32 21.90Q180.64 19.63 180.15 18.65Q179.66 17.68 176.49 17.53L176.49 16.77Q177.47 16.85 178.89 16.87Q180.32 16.89 181.96 16.89Q183.40 16.89 184.57 16.86Q185.74 16.82 186.65 16.77L186.65 17.53Q185.25 17.63 184.28 17.87Q183.30 18.12 182.50 18.80Q181.69 19.48 180.81 20.95L178.25 25.20Q179.42 25.44 180.35 26.06Q181.27 26.68 181.86 28.25L183.69 33.08Q184.25 34.57 184.88 35.30Q185.50 36.04 186.36 36.32Q187.23 36.60 188.50 36.74L188.50 37.50Q186.16 37.45 185.22 37.41Q184.28 37.38 183.50 37.38Q182.54 37.38 181.60 37.41Q180.66 37.45 178.78 37.50L178.78 36.74Q180.20 36.62 180.51 36.05Q180.81 35.47 180.32 34.28L178.39 29.39Q177.71 27.64 176.65 27.16Q175.59 26.68 173.93 26.68L172.02 26.68L172.02 33.84Q172.02 35.40 172.60 36.01Q173.17 36.62 174.83 36.74L174.83 37.50Q174.15 37.45 172.83 37.39Q171.51 37.33 170.17 37.33Q168.63 37.33 167.04 37.39Q165.45 37.45 164.65 37.50ZM220.58 37.70Q220.31 37.57 219.46 37.54Q218.60 37.50 217.90 37.50L206.49 37.50L206.49 36.79Q208.67 34.45 210.63 32.21Q212.60 29.98 213.83 27.47Q215.06 24.95 215.06 21.80Q215.06 19.41 214.26 18.36Q213.45 17.31 212.06 17.31Q210.72 17.31 209.83 17.86Q208.94 18.41 208.94 19.12Q208.94 19.58 209.34 20.03Q209.74 20.48 210.14 21.02Q210.55 21.56 210.55 22.29Q210.55 23.19 209.91 23.61Q209.28 24.02 208.50 24.02Q207.59 24.02 207.03 23.46Q206.47 22.90 206.47 21.75Q206.47 20.24 207.41 18.97Q208.35 17.70 209.96 16.93Q211.57 16.16 213.57 16.16Q216.04 16.16 217.49 17.47Q218.95 18.77 218.95 21.24Q218.95 23.58 217.57 25.60Q216.19 27.61 214.05 29.68Q211.91 31.74 209.62 34.25L209.62 34.40L216.97 34.40Q219.56 34.40 219.73 31.91L220.41 31.91Q220.43 34.40 220.46 35.52Q220.48 36.65 220.58 37.70Z"/></g></g></svg>
